Coordinates
version=1
nRows=7
nColumns=40
inDegrees=yes

Units are S.I. units (second, meters, Newtons, ...)
Angles are in degrees.

endheader
time	pelvis_tilt	pelvis_list	pelvis_rotation	pelvis_tx	pelvis_ty	pelvis_tz	hip_flexion_r	hip_adduction_r	hip_rotation_r	knee_angle_r	knee_angle_r_beta	ankle_angle_r	subtalar_angle_r	mtp_angle_r	hip_flexion_l	hip_adduction_l	hip_rotation_l	knee_angle_l	knee_angle_l_beta	ankle_angle_l	subtalar_angle_l	mtp_angle_l	lumbar_extension	lumbar_bending	lumbar_rotation	arm_flex_r	arm_add_r	arm_rot_r	elbow_flex_r	pro_sup_r	wrist_flex_r	wrist_dev_r	arm_flex_l	arm_add_l	arm_rot_l	elbow_flex_l	pro_sup_l	wrist_flex_l	wrist_dev_l
     55.73692857	     -5.44727628	     -1.62876456	      3.02013320	      0.96540832	      0.91929293	      0.42028229	     31.09236260	     -6.27230677	    -13.25051101	     15.68996419	     15.68996419	      1.22600217	     -0.99146309	      9.57205244	      0.23466749	     -1.08787127	    -12.18514360	     11.02145915	     11.02145915	     19.24185519	      4.90318640	     -5.94309922	    -11.57686088	      0.64460669	      2.21743213	    -21.27328773	    -12.30771810	    -15.30146547	     21.54080793	     47.25006357	      0.00000000	      0.00000000	     28.74516276	    -17.40386036	      3.52450109	     86.33392737	     46.96976245	      0.00000000	      0.00000000
     55.74885714	     -5.38208803	     -1.41476055	      2.95744822	      0.96709849	      0.91747896	      0.42158976	     30.67418006	     -6.22382461	    -14.30093473	     15.15059316	     15.15059316	      1.60874773	      0.42505108	     10.95194056	     -0.82972292	     -0.93875868	    -12.33314738	     10.52352041	     10.52352041	     19.52653144	      5.32678223	     -6.22587465	    -11.56285945	      0.40931686	      1.87160877	    -22.08675847	    -12.39848972	    -15.44741364	     22.22918030	     47.21174779	      0.00000000	      0.00000000	     27.74458522	    -17.72488484	      2.58801990	     88.72170094	     47.13057412	      0.00000000	      0.00000000
     55.76078571	     -5.47160096	     -1.29183629	      2.90774474	      0.96862851	      0.91552455	      0.42317034	     30.47427421	     -6.01833423	    -14.60898967	     14.98672280	     14.98672280	      1.33717297	      0.51843759	     11.02415750	     -1.45033269	     -0.94194609	    -12.30969633	     10.52508596	     10.52508596	     19.93276367	      5.33256406	     -6.34250714	    -11.29182095	      0.30161530	      2.02232118	    -22.71590312	    -12.31983940	    -15.45108511	     21.99329430	     47.21515415	      0.00000000	      0.00000000	     27.46255431	    -17.80185549	      2.43975224	     88.95157846	     47.14780579	      0.00000000	      0.00000000
     55.77271429	     -5.44518901	     -1.29362266	      2.83798425	      0.97032536	      0.91395319	      0.42488550	     30.06650107	     -5.76834590	    -15.16133229	     15.01383339	     15.01383339	      0.77630013	      1.04586375	      9.81413633	     -2.24158083	     -1.10714208	    -12.48805087	     10.45999392	     10.45999392	     20.44170426	      5.66829685	     -6.12980578	    -11.26975006	      0.30728678	      2.24020280	    -23.05609203	    -12.19990543	    -15.44190625	     21.86977571	     47.21180012	      0.00000000	      0.00000000	     26.75564166	    -17.45879579	      1.75609668	     90.50177690	     47.24797626	      0.00000000	      0.00000000
     55.78464286	     -5.53268649	     -1.34680657	      2.84446544	      0.97195457	      0.91227417	      0.42678012	     29.85633976	     -5.47500072	    -15.18893755	     15.33675040	     15.33675040	     -0.82750213	      0.35001235	      5.35518743	     -2.56737969	     -1.45305488	    -12.75905809	     11.07178044	     11.07178044	     21.35166994	      6.14294119	     -5.25614795	    -11.07499426	      0.38288154	      1.55524649	    -22.60291159	    -12.41273335	    -15.36120538	     21.56057880	     47.21638825	      0.00000000	      0.00000000	     25.30305672	    -17.69694970	      0.16402643	     91.86559761	     47.45275354	      0.00000000	      0.00000000
     55.79657143	     -5.61653810	     -1.43026117	      2.84696763	      0.97351351	      0.91090411	      0.42872922	     29.90409084	     -5.28785473	    -15.12177596	     16.43121732	     16.43121732	     -0.93825852	     -0.14825623	      4.27606024	     -2.96106618	     -1.77637908	    -12.69806364	     11.48088498	     11.48088498	     21.75400787	      6.06077958	     -5.20052452	    -10.88422060	      0.50541660	      1.80666299	    -22.54138384	    -12.33843376	    -15.28803547	     21.34550626	     47.21891814	      0.00000000	      0.00000000	     24.75708286	    -17.49689868	      0.05602378	     91.88078205	     47.47600411	      0.00000000	      0.00000000
     55.80850000	     -5.62048378	     -1.69906296	      2.84939916	      0.97517170	      0.91019712	      0.43083699	     29.66195353	     -4.90224104	    -15.15233395	     17.27497011	     17.27497011	     -0.82233452	     -0.42851814	      3.84273411	     -3.46928251	     -2.30389094	    -12.60072526	     11.79139719	     11.79139719	     21.93944831	      5.88791704	     -5.20055513	    -10.80257341	      0.85448089	      2.09924342	    -22.24270518	    -12.20768084	    -15.25486012	     21.39136159	     47.21631308	      0.00000000	      0.00000000	     23.97483920	    -17.30111137	      0.10280493	     91.70207549	     47.46863271	      0.00000000	      0.00000000
